first trial
nRows=13
nColumns=38

# SIMM Motion File Header:
name Sujet_03_velo_60.mvnx
datacolumns 38
datarows 13
otherdata 1
range 0.0000 0.2000
endheader
time pelvis_tilt  pelvis_list  pelvis_rotation  pelvis_tx  pelvis_ty  pelvis_tz  hip_flexion_r  hip_adduction_r  hip_rotation_r  knee_angle_r  ankle_angle_r  subtalar_angle_r  mtp_angle_r  hip_flexion_l  hip_adduction_l  hip_rotation_l  knee_angle_l  ankle_angle_l  subtalar_angle_l  mtp_angle_l  lumbar_extension  lumbar_bending  lumbar_rotation  arm_flex_r  arm_add_r  arm_rot_r  elbow_flex_r  pro_sup_r  wrist_flex_r  wrist_dev_r  arm_flex_l  arm_add_l  arm_rot_l  elbow_flex_l  pro_sup_l  wrist_flex_l  wrist_dev_l
0.0000	-19.6643	-2.2616	-87.6842	0.0000	1.2500	-0.0000	91.4253	5.0782	-1.5751	100.4971	6.5916	-3.4403	0.0000	52.1049	-4.5206	-3.7828	58.2879	-5.7058	1.2657	-0.0000	-13.8413	0.4217	0.8598	74.6286	4.2772	13.8784	-3.0027	63.0443	-28.1128	-15.0692	76.6548	0.4097	18.3172	-1.9873	69.0920	-26.2199	-15.1902	
0.0170	-19.1918	-2.0796	-87.7040	0.0000	1.2500	-0.0000	89.6829	4.8835	-1.4359	97.7428	6.8432	-4.0103	-0.0000	52.3999	-4.8232	-3.6022	61.1526	-5.2518	1.8667	0.0000	-14.0342	0.3316	0.8155	74.6988	4.2149	13.8823	-2.9186	63.0062	-28.1084	-14.9926	76.7117	0.2503	18.2173	-1.8799	69.1652	-26.2125	-15.1881	
0.0330	-18.7193	-1.8979	-87.7251	0.0000	1.2500	-0.0000	87.9420	4.6801	-1.3001	94.9883	7.0921	-4.5766	0.0000	52.6956	-5.1243	-3.4179	64.0191	-4.7948	2.4614	-0.0000	-14.2270	0.2413	0.7709	74.7690	4.1527	13.8861	-2.8346	62.9680	-28.1039	-14.9160	76.7684	0.0909	18.1175	-1.7726	69.2380	-26.2050	-15.1861	
0.0500	-18.3334	-1.7316	-87.7234	0.0000	1.2500	-0.0000	86.1263	4.5078	-1.2300	92.0573	7.1275	-4.8576	-0.0000	53.2413	-5.4468	-3.1608	66.9973	-4.2793	2.8968	0.0000	-14.3867	0.1625	0.7324	74.8309	4.0815	13.9201	-2.7686	62.9056	-28.0985	-14.8395	76.8165	-0.0603	18.0620	-1.6670	69.2737	-26.2077	-15.1847	
0.0670	-18.0742	-1.5855	-87.6932	0.0000	1.2500	-0.0000	84.2296	4.3956	-1.2584	88.8743	6.8368	-4.6495	-0.0000	54.1549	-5.8022	-2.7818	70.1744	-3.6721	3.0742	0.0000	-14.4989	0.1006	0.7048	74.8807	3.9993	14.0209	-2.7258	62.7914	-28.0948	-14.7614	76.8466	-0.2117	18.0895	-1.5611	69.2324	-26.2235	-15.1839	
0.0830	-17.9014	-1.4546	-87.6390	0.0000	1.2500	-0.0000	82.2570	4.3223	-1.3532	85.5151	6.3340	-4.1632	0.0000	55.3220	-6.1714	-2.3266	73.4744	-3.0074	3.0920	-0.0000	-14.5782	0.0505	0.6834	74.9222	3.9082	14.1519	-2.7014	62.6531	-28.0901	-14.6833	76.8684	-0.3548	18.1611	-1.4564	69.1539	-26.2494	-15.1838	
0.1000	-17.7800	-1.3394	-87.5498	0.0000	1.2500	-0.0000	80.1482	4.2545	-1.4821	82.0294	5.7548	-3.7409	-0.0000	56.6432	-6.5316	-1.8682	76.7614	-2.3305	3.0988	0.0000	-14.6355	0.0085	0.6605	74.9580	3.8056	14.2329	-2.6980	62.5498	-28.0757	-14.6107	76.9030	-0.4561	18.2049	-1.3601	69.1203	-26.2860	-15.1849	
0.1170	-17.7084	-1.2479	-87.4182	0.0000	1.2500	-0.0000	77.8544	4.1858	-1.6433	78.3828	5.1892	-3.5597	0.0000	58.0974	-6.8858	-1.4166	80.0044	-1.6472	3.1459	-0.0000	-14.6719	-0.0241	0.6345	74.9993	3.6845	14.2040	-2.7188	62.5287	-28.0468	-14.5399	76.9725	-0.4978	18.1770	-1.2722	69.1841	-26.3373	-15.1872	
0.1330	-17.6882	-1.1718	-87.2515	0.0000	1.2500	-0.0000	75.4249	4.1319	-1.8434	74.6081	4.5492	-3.4380	0.0000	59.7068	-7.2259	-0.9624	83.2308	-0.9542	3.1921	0.0000	-14.6863	-0.0487	0.6071	75.0347	3.5518	14.1251	-2.7606	62.5425	-28.0082	-14.4745	77.0547	-0.4976	18.1213	-1.1934	69.2931	-26.3994	-15.1908	
0.1500	-17.6907	-1.0873	-87.0615	0.0000	1.2500	-0.0000	72.9473	4.0879	-2.0645	70.8554	3.7070	-3.1800	0.0000	61.4348	-7.5183	-0.5526	86.3853	-0.2827	3.2492	0.0000	-14.6864	-0.0737	0.5752	75.0330	3.4254	14.0954	-2.8165	62.5082	-27.9657	-14.4320	77.1041	-0.4744	18.0973	-1.1316	69.3725	-26.4613	-15.1961	
0.1670	-17.7173	-0.9837	-86.8659	0.0000	1.2500	-0.0000	70.4128	4.0717	-2.3809	67.0960	2.5837	-2.6985	0.0000	63.2877	-7.7697	-0.2132	89.4837	0.3619	3.3211	-0.0000	-14.6701	-0.1082	0.5423	74.9790	3.3134	14.1637	-2.8896	62.3821	-27.9179	-14.4222	77.0956	-0.4307	18.1319	-1.0924	69.3918	-26.5205	-15.2035	
0.1830	-17.7663	-0.8713	-86.6468	0.0000	1.2500	-0.0000	67.8310	4.0727	-2.7194	63.3579	1.2553	-2.0775	-0.0000	65.2566	-7.9765	0.0762	92.4989	0.9849	3.4041	0.0000	-14.6395	-0.1433	0.5050	74.8879	3.2077	14.2808	-2.9779	62.2077	-27.8662	-14.4353	77.0542	-0.3643	18.1982	-1.0698	69.3815	-26.5797	-15.2126	
0.2000	-17.8040	-0.7586	-86.3636	0.0000	1.2500	-0.0000	65.3159	4.0254	-2.8452	59.8811	-0.1746	-1.3790	0.0000	67.2797	-8.0910	0.3329	95.3103	1.5711	3.4946	-0.0000	-14.6082	-0.1601	0.4503	74.7741	3.1021	14.3993	-3.0668	62.0324	-27.8203	-14.4579	77.0091	-0.2878	18.2752	-1.0543	69.3590	-26.6352	-15.2226	
